<svg xmlns="http://www.w3.org/2000/svg" viewBox="0 0 80 80">
  <!-- Main star shape (8-pointed) -->
  <path d="M40 8 L44 30 L64 24 L50 40 L68 50 L46 50 L46 72 L40 56 L34 72 L34 50 L12 50 L30 40 L16 24 L36 30 Z" fill="#1d1d1f"/>
  <!-- Inner lighter star -->
  <path d="M40 18 L43 32 L55 28 L46 38 L58 44 L45 44 L45 58 L40 48 L35 58 L35 44 L22 44 L34 38 L25 28 L37 32 Z" fill="#3a3a3c"/>
  <!-- Center sparkle -->
  <circle cx="40" cy="40" r="8" fill="#6e6e73"/>
  <circle cx="40" cy="40" r="4" fill="#aeaeb2"/>
  <circle cx="40" cy="40" r="1.8" fill="white"/>
  <!-- Small stars around -->
  <circle cx="22" cy="20" r="2.5" fill="#aeaeb2"/>
  <circle cx="58" cy="16" r="1.8" fill="#d1d1d6"/>
  <circle cx="14" cy="36" r="2" fill="#d1d1d6"/>
  <circle cx="65" cy="32" r="1.5" fill="#aeaeb2"/>
  <circle cx="18" cy="60" r="2" fill="#d1d1d6"/>
  <circle cx="62" cy="62" r="2.5" fill="#aeaeb2"/>
</svg>